<mxfile host="app.diagrams.net" modified="2023-09-26T14:07:01.424Z" agent="Mozilla/5.0 (Windows NT 10.0; Win64; x64) AppleWebKit/537.36 (KHTML, like Gecko) Chrome/116.0.0.0 Safari/537.36" etag="HyDpHNNLmWA7Ll0xyzVz" version="21.8.2" type="github">
  <diagram name="Page-1" id="c7558073-3199-34d8-9f00-42111426c3f3">
    <mxGraphModel dx="1486" dy="796" grid="0" gridSize="10" guides="1" tooltips="1" connect="1" arrows="1" fold="1" page="0" pageScale="1" pageWidth="826" pageHeight="1169" background="none" math="0" shadow="0">
      <root>
        <mxCell id="0" />
        <mxCell id="1" parent="0" />
        <mxCell id="PPb4lvnf8xWxQ_UAxTig-98" value="" style="edgeStyle=orthogonalEdgeStyle;rounded=0;orthogonalLoop=1;jettySize=auto;html=1;fillColor=#dae8fc;strokeColor=#6c8ebf;" edge="1" parent="1" source="PPb4lvnf8xWxQ_UAxTig-96" target="PPb4lvnf8xWxQ_UAxTig-97">
          <mxGeometry relative="1" as="geometry" />
        </mxCell>
        <mxCell id="PPb4lvnf8xWxQ_UAxTig-105" value="" style="edgeStyle=orthogonalEdgeStyle;rounded=0;orthogonalLoop=1;jettySize=auto;html=1;fillColor=#dae8fc;strokeColor=#6c8ebf;" edge="1" parent="1" source="PPb4lvnf8xWxQ_UAxTig-96" target="PPb4lvnf8xWxQ_UAxTig-97">
          <mxGeometry relative="1" as="geometry" />
        </mxCell>
        <mxCell id="PPb4lvnf8xWxQ_UAxTig-107" value="" style="edgeStyle=orthogonalEdgeStyle;rounded=0;orthogonalLoop=1;jettySize=auto;html=1;entryX=0;entryY=0.5;entryDx=0;entryDy=0;fillColor=#dae8fc;strokeColor=#6c8ebf;" edge="1" parent="1" source="PPb4lvnf8xWxQ_UAxTig-96" target="PPb4lvnf8xWxQ_UAxTig-106">
          <mxGeometry relative="1" as="geometry" />
        </mxCell>
        <mxCell id="PPb4lvnf8xWxQ_UAxTig-96" value="端口扫描" style="rounded=1;whiteSpace=wrap;html=1;fillColor=#dae8fc;strokeColor=#6c8ebf;" vertex="1" parent="1">
          <mxGeometry x="10" y="300" width="120" height="60" as="geometry" />
        </mxCell>
        <mxCell id="PPb4lvnf8xWxQ_UAxTig-100" value="" style="edgeStyle=orthogonalEdgeStyle;rounded=0;orthogonalLoop=1;jettySize=auto;html=1;fillColor=#dae8fc;strokeColor=#6c8ebf;" edge="1" parent="1" source="PPb4lvnf8xWxQ_UAxTig-97" target="PPb4lvnf8xWxQ_UAxTig-99">
          <mxGeometry relative="1" as="geometry" />
        </mxCell>
        <mxCell id="PPb4lvnf8xWxQ_UAxTig-97" value="80" style="whiteSpace=wrap;html=1;rounded=1;fillColor=#dae8fc;strokeColor=#6c8ebf;" vertex="1" parent="1">
          <mxGeometry x="210" y="360" width="120" height="60" as="geometry" />
        </mxCell>
        <mxCell id="PPb4lvnf8xWxQ_UAxTig-102" value="" style="edgeStyle=orthogonalEdgeStyle;rounded=0;orthogonalLoop=1;jettySize=auto;html=1;fillColor=#dae8fc;strokeColor=#6c8ebf;" edge="1" parent="1" source="PPb4lvnf8xWxQ_UAxTig-99" target="PPb4lvnf8xWxQ_UAxTig-101">
          <mxGeometry relative="1" as="geometry" />
        </mxCell>
        <mxCell id="PPb4lvnf8xWxQ_UAxTig-99" value="进行目录遍历发现一个目录存在密码认证所以进行暴力破解" style="whiteSpace=wrap;html=1;rounded=1;fillColor=#dae8fc;strokeColor=#6c8ebf;" vertex="1" parent="1">
          <mxGeometry x="410" y="360" width="120" height="60" as="geometry" />
        </mxCell>
        <mxCell id="PPb4lvnf8xWxQ_UAxTig-104" value="" style="edgeStyle=orthogonalEdgeStyle;rounded=0;orthogonalLoop=1;jettySize=auto;html=1;fillColor=#dae8fc;strokeColor=#6c8ebf;" edge="1" parent="1" source="PPb4lvnf8xWxQ_UAxTig-101" target="PPb4lvnf8xWxQ_UAxTig-103">
          <mxGeometry relative="1" as="geometry" />
        </mxCell>
        <mxCell id="PPb4lvnf8xWxQ_UAxTig-101" value="访问保护页面发现是一个&amp;nbsp;Codiad , 且存在密码重用问题" style="whiteSpace=wrap;html=1;rounded=1;fillColor=#dae8fc;strokeColor=#6c8ebf;" vertex="1" parent="1">
          <mxGeometry x="610" y="360" width="120" height="60" as="geometry" />
        </mxCell>
        <mxCell id="PPb4lvnf8xWxQ_UAxTig-109" value="" style="edgeStyle=orthogonalEdgeStyle;rounded=0;orthogonalLoop=1;jettySize=auto;html=1;fillColor=#dae8fc;strokeColor=#6c8ebf;" edge="1" parent="1" source="PPb4lvnf8xWxQ_UAxTig-103" target="PPb4lvnf8xWxQ_UAxTig-108">
          <mxGeometry relative="1" as="geometry" />
        </mxCell>
        <mxCell id="PPb4lvnf8xWxQ_UAxTig-103" value="发现一个 RCE 漏洞" style="whiteSpace=wrap;html=1;rounded=1;fillColor=#dae8fc;strokeColor=#6c8ebf;" vertex="1" parent="1">
          <mxGeometry x="810" y="360" width="120" height="60" as="geometry" />
        </mxCell>
        <mxCell id="PPb4lvnf8xWxQ_UAxTig-106" value="22" style="whiteSpace=wrap;html=1;rounded=1;fillColor=#dae8fc;strokeColor=#6c8ebf;" vertex="1" parent="1">
          <mxGeometry x="210" y="170" width="120" height="60" as="geometry" />
        </mxCell>
        <mxCell id="PPb4lvnf8xWxQ_UAxTig-111" value="" style="edgeStyle=orthogonalEdgeStyle;rounded=0;orthogonalLoop=1;jettySize=auto;html=1;fillColor=#dae8fc;strokeColor=#6c8ebf;" edge="1" parent="1" source="PPb4lvnf8xWxQ_UAxTig-108" target="PPb4lvnf8xWxQ_UAxTig-110">
          <mxGeometry relative="1" as="geometry" />
        </mxCell>
        <mxCell id="PPb4lvnf8xWxQ_UAxTig-108" value="得到 www-data 的反向 Shell" style="whiteSpace=wrap;html=1;rounded=1;fillColor=#dae8fc;strokeColor=#6c8ebf;" vertex="1" parent="1">
          <mxGeometry x="810" y="170" width="120" height="60" as="geometry" />
        </mxCell>
        <mxCell id="PPb4lvnf8xWxQ_UAxTig-113" value="" style="edgeStyle=orthogonalEdgeStyle;rounded=0;orthogonalLoop=1;jettySize=auto;html=1;fillColor=#dae8fc;strokeColor=#6c8ebf;" edge="1" parent="1" source="PPb4lvnf8xWxQ_UAxTig-110" target="PPb4lvnf8xWxQ_UAxTig-112">
          <mxGeometry relative="1" as="geometry" />
        </mxCell>
        <mxCell id="PPb4lvnf8xWxQ_UAxTig-110" value="发现存在一个信息泄露,泄露了用户 dante 的密码" style="whiteSpace=wrap;html=1;rounded=1;fillColor=#dae8fc;strokeColor=#6c8ebf;" vertex="1" parent="1">
          <mxGeometry x="1010" y="170" width="120" height="60" as="geometry" />
        </mxCell>
        <mxCell id="PPb4lvnf8xWxQ_UAxTig-112" value="得到 dante&amp;nbsp; 的密码并且发现用户具有SUDO 特权" style="whiteSpace=wrap;html=1;rounded=1;fillColor=#dae8fc;strokeColor=#6c8ebf;" vertex="1" parent="1">
          <mxGeometry x="1210" y="170" width="120" height="60" as="geometry" />
        </mxCell>
      </root>
    </mxGraphModel>
  </diagram>
</mxfile>
